<svg width="12" height="12" viewBox="0 0 12 12" fill="none" xmlns="http://www.w3.org/2000/svg">
<mask id="mask0" mask-type="alpha" maskUnits="userSpaceOnUse" x="0" y="0" width="12" height="12">
<path fill-rule="evenodd" clip-rule="evenodd" d="M8.16552 8.87053C7.30342 9.57644 6.20117 10 5 10C2.23858 10 0 7.76142 0 5C0 2.23858 2.23858 0 5 0C7.76142 0 10 2.23858 10 5C10 6.2001 9.5772 7.30144 8.87242 8.16321L11.7426 11.0334C11.9379 11.2287 11.9379 11.5453 11.7426 11.7405C11.5474 11.9358 11.2308 11.9358 11.0355 11.7405L8.16552 8.87053ZM9 5C9 7.20914 7.20914 9 5 9C2.79086 9 1 7.20914 1 5C1 2.79086 2.79086 1 5 1C7.20914 1 9 2.79086 9 5Z" fill="#8B8B8B"/>
</mask>
<g mask="url(#mask0)">
<rect width="12" height="12" fill="#75787B"/>
</g>
</svg>
