<svg width="903" height="735" viewBox="0 0 903 735" fill="none" xmlns="http://www.w3.org/2000/svg">
<path opacity="0.1" d="M546.257 735C597.231 735 638.554 728.077 638.554 719.537C638.554 710.997 597.231 704.074 546.257 704.074C495.283 704.074 453.96 710.997 453.96 719.537C453.96 728.077 495.283 735 546.257 735Z" fill="#1D7DE8"/>
<path opacity="0.1" d="M542.382 90.8891C504.596 122.937 455.574 120.866 412.662 104.195C369.75 87.5238 330.221 57.8315 288.379 36.7336C254.13 19.31 217.238 7.66232 179.191 2.2608C125.862 -5.13425 66.2928 3.87441 29.1288 55.6829C-12.2556 113.376 -9.07089 217.433 35.6881 270.398C58.456 297.338 88.2666 310.557 114.271 331.595C140.275 352.632 164.329 387.554 162.12 428.153C160.074 465.741 136.228 494.596 111.578 512.717C92.5129 526.696 69.0373 541.97 66.6984 570.937C64.4717 598.964 84.2102 620.925 103.068 633.42C164.554 674.166 240.297 673.769 301.575 632.393C323.437 617.629 343.521 597.998 366.444 586.487C426.618 556.285 492.936 586.685 556.648 597.808C610.582 607.222 665.888 602.347 718.432 583.544C749.986 572.257 781.66 554.999 803.833 522.848C819.817 499.662 829.777 470.314 839.124 441.338C849.101 410.435 858.687 379.316 867.881 347.981C873.397 329.17 878.834 310.014 880.258 289.874C882.847 253.399 871.955 217.39 857.136 186.567C821.983 113.454 762.716 62.0338 698.564 49.0127C634.411 35.9915 566.436 61.4557 516.653 117.259" fill="#1D7DE8"/>
<g opacity="0.35">
<path opacity="0.2" d="M432.391 176.066V170.293H341.941C337.781 170.293 340.319 176.066 340.319 176.066H291.175V304.802H506.944V176.066H432.391Z" fill="#1D7DE8"/>
</g>
<path d="M719.295 272.063C719.295 272.063 746.49 223.896 787.478 210.021C804.694 204.309 819.591 193.166 829.932 178.266C834.788 171.159 838.98 163.62 842.455 155.745" stroke="#535461" stroke-width="2" stroke-miterlimit="10"/>
<path d="M868.175 146.839C863.514 151.37 841.782 156.055 841.782 156.055C841.782 156.055 847.107 134.483 851.777 129.944C854.018 127.77 857.031 126.575 860.153 126.622C863.275 126.669 866.251 127.954 868.425 130.194C870.6 132.435 871.795 135.447 871.748 138.569C871.701 141.69 870.416 144.665 868.175 146.839V146.839Z" fill="#1D7DE8"/>
<path d="M855.885 185.886C849.507 187.154 828.715 179.276 828.715 179.276C828.715 179.276 844.924 164.063 851.302 162.794C852.818 162.494 854.379 162.494 855.895 162.797C857.412 163.099 858.854 163.697 860.139 164.556C861.424 165.416 862.527 166.52 863.385 167.805C864.244 169.091 864.84 170.533 865.141 172.049C865.442 173.565 865.441 175.126 865.139 176.642C864.837 178.158 864.239 179.599 863.379 180.884C862.52 182.169 861.415 183.272 860.13 184.13C858.844 184.988 857.401 185.585 855.885 185.886V185.886Z" fill="#1D7DE8"/>
<path d="M811.117 228.142C804.972 226.019 791.008 208.727 791.008 208.727C791.008 208.727 812.679 203.765 818.824 205.896C820.285 206.402 821.632 207.191 822.788 208.217C823.945 209.244 824.887 210.488 825.562 211.878C826.238 213.269 826.632 214.779 826.724 216.322C826.815 217.865 826.602 219.411 826.096 220.872C825.59 222.333 824.801 223.679 823.774 224.835C822.748 225.991 821.503 226.933 820.112 227.608C818.722 228.283 817.211 228.678 815.668 228.77C814.124 228.861 812.578 228.648 811.117 228.142V228.142Z" fill="#1D7DE8"/>
<path d="M770.043 252.484C763.631 251.431 746.939 236.745 746.939 236.745C746.939 236.745 767.463 228.202 773.884 229.255C776.965 229.764 779.718 231.476 781.536 234.014C783.355 236.553 784.09 239.709 783.581 242.79C783.071 245.87 781.359 248.622 778.82 250.44C776.282 252.258 773.124 252.993 770.043 252.484Z" fill="#1D7DE8"/>
<path d="M810.591 162.415C810.591 168.921 822.354 187.775 822.354 187.775C822.354 187.775 834.144 168.93 834.144 162.423C834.187 160.85 833.913 159.285 833.341 157.819C832.768 156.353 831.907 155.017 830.81 153.889C829.712 152.762 828.399 151.865 826.949 151.253C825.499 150.641 823.941 150.326 822.367 150.326C820.793 150.326 819.235 150.641 817.785 151.253C816.335 151.865 815.023 152.762 813.925 153.889C812.827 155.017 811.966 156.353 811.394 157.819C810.821 159.285 810.548 160.85 810.591 162.423V162.415Z" fill="#1D7DE8"/>
<path d="M762.923 191.469C764.865 197.673 781.738 212.178 781.738 212.178C781.738 212.178 787.339 190.666 785.397 184.462C784.995 182.919 784.284 181.474 783.307 180.215C782.33 178.956 781.107 177.908 779.712 177.135C778.318 176.362 776.781 175.881 775.194 175.72C773.608 175.559 772.006 175.722 770.484 176.198C768.963 176.675 767.554 177.456 766.344 178.494C765.133 179.531 764.146 180.803 763.442 182.234C762.738 183.664 762.333 185.223 762.249 186.814C762.166 188.406 762.407 189.999 762.958 191.495L762.923 191.469Z" fill="#1D7DE8"/>
<path d="M720.46 226.114C721.323 232.56 735.512 249.68 735.512 249.68C735.512 249.68 744.669 229.428 743.806 222.982C743.695 221.375 743.255 219.807 742.514 218.377C741.773 216.946 740.747 215.683 739.498 214.665C738.249 213.647 736.805 212.896 735.255 212.458C733.704 212.02 732.08 211.905 730.483 212.12C728.886 212.335 727.35 212.874 725.971 213.706C724.591 214.538 723.396 215.644 722.461 216.955C721.525 218.267 720.869 219.756 720.532 221.332C720.195 222.907 720.185 224.535 720.503 226.114H720.46Z" fill="#1D7DE8"/>
<path opacity="0.25" d="M868.175 146.839C863.514 151.37 841.782 156.055 841.782 156.055C841.782 156.055 847.107 134.483 851.777 129.944C854.018 127.77 857.031 126.575 860.153 126.622C863.275 126.669 866.251 127.954 868.425 130.194C870.6 132.435 871.795 135.447 871.748 138.569C871.701 141.69 870.416 144.665 868.175 146.839V146.839Z" fill="black"/>
<path opacity="0.25" d="M855.885 185.886C849.507 187.154 828.715 179.276 828.715 179.276C828.715 179.276 844.924 164.063 851.302 162.794C852.818 162.494 854.379 162.494 855.895 162.797C857.412 163.099 858.854 163.697 860.139 164.556C861.424 165.416 862.527 166.52 863.385 167.805C864.244 169.091 864.84 170.533 865.141 172.049C865.442 173.565 865.441 175.126 865.139 176.642C864.837 178.158 864.239 179.599 863.379 180.884C862.52 182.169 861.415 183.272 860.13 184.13C858.844 184.988 857.401 185.585 855.885 185.886V185.886Z" fill="black"/>
<path opacity="0.25" d="M811.117 228.142C804.972 226.019 791.008 208.727 791.008 208.727C791.008 208.727 812.679 203.765 818.824 205.896C820.285 206.402 821.632 207.191 822.788 208.217C823.945 209.244 824.887 210.488 825.562 211.878C826.238 213.269 826.632 214.779 826.724 216.322C826.815 217.865 826.602 219.411 826.096 220.872C825.59 222.333 824.801 223.679 823.774 224.835C822.748 225.991 821.503 226.933 820.112 227.608C818.722 228.283 817.211 228.678 815.668 228.77C814.124 228.861 812.578 228.648 811.117 228.142V228.142Z" fill="black"/>
<path opacity="0.25" d="M770.043 252.484C763.631 251.431 746.939 236.745 746.939 236.745C746.939 236.745 767.463 228.202 773.884 229.255C776.965 229.764 779.718 231.476 781.536 234.014C783.355 236.553 784.09 239.709 783.581 242.79C783.071 245.87 781.359 248.622 778.82 250.44C776.282 252.258 773.124 252.993 770.043 252.484Z" fill="black"/>
<path opacity="0.25" d="M810.591 162.415C810.591 168.921 822.354 187.775 822.354 187.775C822.354 187.775 834.144 168.93 834.144 162.423C834.187 160.85 833.913 159.285 833.341 157.819C832.768 156.353 831.907 155.017 830.81 153.889C829.712 152.762 828.399 151.865 826.949 151.253C825.499 150.641 823.941 150.326 822.367 150.326C820.793 150.326 819.235 150.641 817.785 151.253C816.335 151.865 815.023 152.762 813.925 153.889C812.827 155.017 811.966 156.353 811.394 157.819C810.821 159.285 810.548 160.85 810.591 162.423V162.415Z" fill="black"/>
<path opacity="0.25" d="M762.923 191.469C764.865 197.673 781.738 212.178 781.738 212.178C781.738 212.178 787.339 190.666 785.397 184.462C784.995 182.919 784.284 181.474 783.307 180.215C782.33 178.956 781.107 177.908 779.712 177.135C778.318 176.362 776.781 175.881 775.194 175.72C773.608 175.559 772.006 175.722 770.484 176.198C768.963 176.675 767.554 177.456 766.344 178.494C765.133 179.531 764.146 180.803 763.442 182.234C762.738 183.664 762.333 185.223 762.249 186.814C762.166 188.406 762.407 189.999 762.958 191.495L762.923 191.469Z" fill="black"/>
<path opacity="0.25" d="M720.46 226.114C721.323 232.56 735.512 249.68 735.512 249.68C735.512 249.68 744.669 229.428 743.806 222.982C743.695 221.375 743.255 219.807 742.514 218.377C741.773 216.946 740.747 215.683 739.498 214.665C738.249 213.647 736.805 212.896 735.255 212.458C733.704 212.02 732.08 211.905 730.483 212.12C728.886 212.335 727.35 212.874 725.971 213.706C724.591 214.538 723.396 215.644 722.461 216.955C721.525 218.267 720.869 219.756 720.532 221.332C720.195 222.907 720.185 224.535 720.503 226.114H720.46Z" fill="black"/>
<path d="M720.865 271.106C720.865 271.106 726.199 216.053 757.978 186.774C771.417 174.59 780.534 158.371 783.956 140.558C785.516 132.09 786.293 123.497 786.278 114.886" stroke="#535461" stroke-width="2" stroke-miterlimit="10"/>
<path d="M806.224 96.3081C803.79 102.348 785.82 115.43 785.82 115.43C785.82 115.43 781.945 93.5382 784.379 87.5066C785.547 84.6104 787.817 82.2965 790.691 81.0739C793.564 79.8514 796.806 79.8202 799.703 80.9874C802.6 82.1545 804.914 84.4244 806.137 87.2976C807.36 90.1708 807.391 93.412 806.224 96.3081V96.3081Z" fill="#1D7DE8"/>
<path d="M810.806 136.985C805.49 140.73 783.292 141.947 783.292 141.947C783.292 141.947 791.922 121.47 797.256 117.734C798.52 116.844 799.948 116.213 801.456 115.874C802.965 115.536 804.525 115.499 806.048 115.763C807.571 116.028 809.027 116.59 810.333 117.418C811.639 118.245 812.769 119.322 813.659 120.586C814.549 121.85 815.181 123.277 815.519 124.785C815.857 126.293 815.895 127.853 815.63 129.376C815.365 130.899 814.803 132.355 813.975 133.66C813.147 134.966 812.071 136.096 810.806 136.985V136.985Z" fill="#1D7DE8"/>
<path d="M787.003 193.755C780.521 194.299 760.748 184.151 760.748 184.151C760.748 184.151 778.553 170.837 785.035 170.293C788.147 170.032 791.235 171.018 793.62 173.033C796.005 175.049 797.491 177.929 797.752 181.04C798.013 184.152 797.027 187.239 795.011 189.624C792.995 192.008 790.115 193.494 787.003 193.755V193.755Z" fill="#1D7DE8"/>
<path d="M759.324 232.646C753.032 234.286 731.818 227.615 731.818 227.615C731.818 227.615 747.12 211.488 753.395 209.857C754.891 209.469 756.45 209.379 757.981 209.593C759.512 209.807 760.987 210.321 762.319 211.105C763.652 211.888 764.817 212.927 765.749 214.161C766.68 215.395 767.359 216.8 767.748 218.296C768.136 219.792 768.225 221.351 768.011 222.882C767.797 224.413 767.284 225.886 766.5 227.219C765.716 228.551 764.677 229.717 763.443 230.648C762.209 231.579 760.803 232.258 759.307 232.646H759.324Z" fill="#1D7DE8"/>
<path d="M759.885 133.879C762.517 139.824 780.918 152.293 780.918 152.293C780.918 152.293 784.051 130.289 781.419 124.344C780.16 121.483 777.816 119.24 774.902 118.107C771.989 116.974 768.745 117.045 765.883 118.303C763.022 119.562 760.778 121.906 759.645 124.819C758.512 127.731 758.583 130.975 759.842 133.836L759.885 133.879Z" fill="#1D7DE8"/>
<path d="M728.089 179.776C732.405 184.66 753.671 191.063 753.671 191.063C753.671 191.063 750.072 169.128 745.782 164.236C743.722 161.89 740.814 160.458 737.699 160.256C734.583 160.054 731.514 161.097 729.168 163.157C726.822 165.217 725.39 168.124 725.188 171.239C724.986 174.354 726.029 177.422 728.089 179.768V179.776Z" fill="#1D7DE8"/>
<path d="M703.302 228.625C706.754 234.165 726.605 244.071 726.605 244.071C726.605 244.071 726.821 221.843 723.368 216.303C721.7 213.713 719.084 211.88 716.081 211.195C713.077 210.511 709.925 211.03 707.299 212.642C704.674 214.253 702.784 216.829 702.036 219.816C701.287 222.804 701.738 225.966 703.293 228.625H703.302Z" fill="#1D7DE8"/>
<path d="M132.473 493.811C132.473 493.811 98.8133 452.107 100.928 410.257C101.933 392.712 97.2213 375.314 87.4984 360.674C82.8268 353.762 77.5312 347.292 71.6783 341.346" stroke="#535461" stroke-width="2" stroke-miterlimit="10"/>
<path d="M72.8607 314.967C75.2773 320.791 71.7301 342.036 71.7301 342.036C71.7301 342.036 54.1924 329.524 51.7758 323.699C50.6175 320.904 50.6175 317.763 51.7756 314.967C52.9336 312.172 55.155 309.951 57.9511 308.793C60.7471 307.635 63.8887 307.635 66.6848 308.792C69.4809 309.95 71.7024 312.171 72.8607 314.967Z" fill="#1D7DE8"/>
<path d="M103.681 339.999C102.542 346.195 88.0163 362.098 88.0163 362.098C88.0163 362.098 80.1019 342.07 81.2412 335.866C81.4948 334.376 82.0419 332.952 82.8507 331.675C83.6596 330.399 84.714 329.296 85.9528 328.43C87.1917 327.564 88.5902 326.953 90.0672 326.633C91.5441 326.312 93.0701 326.288 94.5566 326.561C96.043 326.835 97.4602 327.401 98.7258 328.227C99.9915 329.053 101.08 330.123 101.929 331.373C102.778 332.623 103.37 334.029 103.671 335.51C103.972 336.991 103.975 338.517 103.681 339.999V339.999Z" fill="#1D7DE8"/>
<path d="M125.724 395.415C121.607 400.195 101.031 406.589 101.031 406.589C101.031 406.589 104.311 385.302 108.428 380.521C110.442 378.372 113.209 377.085 116.15 376.929C119.091 376.773 121.979 377.761 124.209 379.684C126.439 381.608 127.838 384.32 128.114 387.252C128.39 390.184 127.521 393.109 125.689 395.415H125.724Z" fill="#1D7DE8"/>
<path d="M132.974 441.105C129.729 446.507 110.534 456.292 110.534 456.292C110.534 456.292 110.163 434.72 113.417 429.353C114.993 426.797 117.514 424.966 120.433 424.257C123.351 423.548 126.431 424.018 129.005 425.565C131.579 427.112 133.439 429.611 134.182 432.52C134.925 435.429 134.491 438.514 132.974 441.105V441.105Z" fill="#1D7DE8"/>
<path d="M66.31 372.401C72.1703 374.722 93.3674 370.865 93.3674 370.865C93.3674 370.865 80.5939 353.521 74.7422 351.191C71.9488 350.167 68.8658 350.273 66.1495 351.487C63.4333 352.702 61.2983 354.928 60.1993 357.692C59.1003 360.457 59.124 363.541 60.2653 366.288C61.4066 369.035 63.5754 371.229 66.31 372.401V372.401Z" fill="#1D7DE8"/>
<path d="M75.4759 425.728C81.759 426.194 100.833 416.176 100.833 416.176C100.833 416.176 83.4507 403.44 77.1675 402.974C75.6731 402.86 74.171 403.043 72.747 403.51C71.323 403.977 70.0049 404.72 68.8681 405.696C67.7312 406.672 66.7979 407.863 66.1213 409.2C65.4447 410.537 65.0381 411.994 64.9248 413.488C64.8114 414.982 64.9935 416.484 65.4607 417.908C65.9279 419.332 66.671 420.649 67.6475 421.786C68.6241 422.922 69.815 423.856 71.1522 424.532C72.4895 425.209 73.9469 425.615 75.4413 425.728H75.4759Z" fill="#1D7DE8"/>
<path d="M91.4945 476.337C97.605 477.865 118.103 471.16 118.103 471.16C118.103 471.16 103.12 455.68 97.0095 454.152C95.5554 453.79 94.0441 453.718 92.5621 453.94C91.08 454.162 89.6562 454.673 88.3719 455.445C85.7781 457.005 83.9101 459.53 83.1788 462.466C82.8166 463.92 82.7445 465.431 82.9664 466.913C83.1883 468.395 83.7 469.818 84.4722 471.102C85.2444 472.386 86.262 473.506 87.4668 474.396C88.6717 475.287 90.0403 475.932 91.4945 476.294V476.337Z" fill="#1D7DE8"/>
<path d="M851.535 563.81C851.535 563.81 858.12 572.438 848.497 585.382C838.874 598.325 830.933 609.353 834.144 617.465C834.144 617.465 848.669 593.303 860.485 592.984C872.3 592.665 864.541 578.323 851.535 563.81Z" fill="#1D7DE8"/>
<path opacity="0.1" d="M851.535 563.81C852.109 564.642 852.562 565.551 852.881 566.51C864.412 580.058 870.557 592.699 859.475 593.019C849.118 593.312 836.759 611.769 833.79 616.438C833.888 616.798 834.007 617.152 834.144 617.499C834.144 617.499 848.669 593.338 860.485 593.019C872.3 592.699 864.541 578.323 851.535 563.81Z" fill="black"/>
<path d="M863.782 574.777C863.782 577.814 863.437 580.265 863.022 580.265C862.608 580.265 862.263 577.814 862.263 574.777C862.263 571.74 862.686 573.181 863.126 573.181C863.566 573.181 863.782 571.748 863.782 574.777Z" fill="#FFD037"/>
<path d="M867.977 578.401C865.318 579.851 862.997 580.722 862.798 580.36C862.6 579.997 864.593 578.513 867.251 577.064C869.91 575.614 868.866 576.667 869.064 577.064C869.263 577.461 870.643 576.951 867.977 578.401Z" fill="#FFD037"/>
<path d="M816.753 563.81C816.753 563.81 810.168 572.438 819.791 585.382C829.414 598.325 837.355 609.353 834.144 617.465C834.144 617.465 819.618 593.303 807.803 592.984C795.987 592.665 803.746 578.323 816.753 563.81Z" fill="#1D7DE8"/>
<path opacity="0.1" d="M816.753 563.81C816.175 564.639 815.721 565.549 815.407 566.51C803.867 580.058 797.731 592.699 808.813 593.019C819.17 593.312 831.529 611.769 834.498 616.438C834.394 616.791 834.282 617.145 834.144 617.499C834.144 617.499 819.618 593.338 807.803 593.019C795.987 592.699 803.746 578.323 816.753 563.81Z" fill="black"/>
<path d="M804.497 574.777C804.497 577.814 804.843 580.265 805.257 580.265C805.671 580.265 806.016 577.814 806.016 574.777C806.016 571.74 805.593 573.181 805.153 573.181C804.713 573.181 804.497 571.748 804.497 574.777Z" fill="#FFD037"/>
<path d="M800.303 578.401C802.97 579.851 805.291 580.722 805.481 580.36C805.671 579.997 803.686 578.513 801.028 577.064C798.369 575.614 799.414 576.667 799.215 577.064C799.017 577.461 797.645 576.951 800.303 578.401Z" fill="#FFD037"/>
<path opacity="0.1" d="M834.144 683.355C872.172 683.355 903 678.627 903 672.794C903 666.96 872.172 662.232 834.144 662.232C796.116 662.232 765.288 666.96 765.288 672.794C765.288 678.627 796.116 683.355 834.144 683.355Z" fill="#1D7DE8"/>
<path d="M869.582 605.893L869.254 608.577L868.788 612.373L868.598 613.961L868.14 617.758L867.933 619.346L867.476 623.142L862.202 666.287C861.736 670.145 855.436 673.191 847.832 673.191H820.456C812.852 673.191 806.56 670.188 806.085 666.287L800.812 623.142L800.346 619.346L800.182 617.741L799.716 613.944L799.517 612.356L799.06 608.559L798.723 605.876C798.464 603.693 801.874 601.855 806.172 601.855H862.168C866.44 601.872 869.849 603.71 869.582 605.893Z" fill="#65617D"/>
<path d="M869.254 608.577L868.788 612.373H799.492L799.034 608.577H869.254Z" fill="#9D9CB5"/>
<path d="M868.598 613.961L868.132 617.758H800.156L799.681 613.961H868.598Z" fill="#9D9CB5"/>
<path d="M867.933 619.346L867.476 623.134H800.812L800.346 619.346H867.933Z" fill="#9D9CB5"/>
<path d="M693.635 160.465H692.911C694.05 159.17 694.637 157.876 694.542 156.728L687.982 150.17L690.485 144.561H682.053L683.615 140.187H678.618L623.329 158.601C623.329 158.601 623.269 159.369 623.329 160.465H587.728V320.834H742.356V160.465H693.635Z" fill="url(#paint0_linear)"/>
<path d="M741.174 161.026H588.875V319.143H741.174V161.026Z" fill="#F6F7F9"/>
<path opacity="0.1" d="M693.212 161.026C685.997 171.648 637.803 185.635 637.803 185.635L638.105 174.564H629.19C629.431 173.498 629.318 172.382 628.87 171.384C628.422 170.387 627.662 169.562 626.704 169.033C624.115 167.609 623.865 162.993 623.899 161.034L693.212 161.026Z" fill="black"/>
<path d="M678.411 141.032L623.959 159.153C623.959 159.153 623.338 166.229 626.721 168.067C627.675 168.6 628.431 169.428 628.876 170.427C629.321 171.425 629.431 172.541 629.19 173.607H638.105L637.803 184.678C637.803 184.678 695.025 168.067 694.101 157.306L687.646 150.912L690.105 145.373H681.794L683.339 141.058L678.411 141.032Z" fill="#9D9CB5"/>
<g opacity="0.35">
<path opacity="0.2" d="M713.02 212.282H617.029V214.974H713.02V212.282Z" fill="#1D7DE8"/>
</g>
<g opacity="0.35">
<path opacity="0.2" d="M713.02 226.476H617.029V229.169H713.02V226.476Z" fill="#1D7DE8"/>
</g>
<g opacity="0.35">
<path opacity="0.2" d="M713.02 240.662H617.029V243.355H713.02V240.662Z" fill="#1D7DE8"/>
</g>
<g opacity="0.35">
<path opacity="0.2" d="M713.02 254.849H617.029V257.541H713.02V254.849Z" fill="#1D7DE8"/>
</g>
<g opacity="0.35">
<path opacity="0.2" d="M713.02 269.035H617.029V271.727H713.02V269.035Z" fill="#1D7DE8"/>
</g>
<g opacity="0.35">
<path opacity="0.2" d="M713.02 283.229H617.029V285.922H713.02V283.229Z" fill="#1D7DE8"/>
</g>
<path d="M177.621 147.461H177.258C179.985 140.471 182.506 133.654 182.393 132.351C182.152 129.763 176.965 135.389 176.723 133.982C176.481 132.576 176.723 127.243 174.367 127.243C172.011 127.243 170.587 130.013 169.188 130.013C167.79 130.013 162.103 129.081 162.103 129.081L154.844 147.461H100.298V318.746H235.68V147.461H177.621Z" fill="url(#paint1_linear)"/>
<path d="M234.135 148.419H101.834V317.599H234.135V148.419Z" fill="#F6F7F9"/>
<path opacity="0.1" d="M177.405 148.419C174.617 155.658 171.476 163.286 170.759 165.107C169.37 168.559 168.455 166.721 166.832 166.263C165.21 165.806 163.147 166.721 162.223 166.263C161.3 165.806 155.88 166.263 155.88 166.263C155.94 165.416 155.94 164.565 155.88 163.718C155.759 162.803 149.528 163.718 149.528 163.718L155.466 148.419H177.405Z" fill="black"/>
<path d="M162.223 130.272L149.528 162.803C149.528 162.803 155.759 161.88 155.871 162.803C155.936 163.648 155.936 164.496 155.871 165.34C155.871 165.34 161.3 164.874 162.223 165.34C163.147 165.806 165.218 164.874 166.832 165.34C168.446 165.806 169.37 167.644 170.759 164.184C172.149 160.724 182.299 136.036 182.065 133.499C181.832 130.962 176.758 136.502 176.525 135.113C176.292 133.723 176.525 128.46 174.22 128.46C171.916 128.46 170.526 131.195 169.145 131.195C167.764 131.195 162.223 130.272 162.223 130.272Z" fill="#9D9CB5"/>
<g opacity="0.35">
<path opacity="0.2" d="M215.984 193.324H119.993V196.016H215.984V193.324Z" fill="#1D7DE8"/>
</g>
<g opacity="0.35">
<path opacity="0.2" d="M215.984 203.48H119.993V206.172H215.984V203.48Z" fill="#1D7DE8"/>
</g>
<g opacity="0.35">
<path opacity="0.2" d="M215.984 213.628H119.993V216.32H215.984V213.628Z" fill="#1D7DE8"/>
</g>
<g opacity="0.35">
<path opacity="0.2" d="M215.984 223.784H119.993V226.476H215.984V223.784Z" fill="#1D7DE8"/>
</g>
<g opacity="0.35">
<path opacity="0.2" d="M215.984 233.932H119.993V236.624H215.984V233.932Z" fill="#1D7DE8"/>
</g>
<g opacity="0.35">
<path opacity="0.2" d="M215.984 244.08H119.993V246.772H215.984V244.08Z" fill="#1D7DE8"/>
</g>
<path d="M676.866 400.678H676.504C679.852 392.05 682.942 383.619 682.795 382.04C682.51 378.873 676.141 385.785 675.891 384.059C675.64 382.333 675.891 375.741 672.999 375.741C670.108 375.741 668.373 379.192 666.639 379.192C664.904 379.192 657.956 378.036 657.956 378.036L649.075 400.713H582.187V612.037H748.096V400.678H676.866Z" fill="url(#paint2_linear)"/>
<path d="M746.533 402.189H583.516V610.665H746.533V402.189Z" fill="#F6F7F9"/>
<path opacity="0.1" d="M676.547 402.189C673.146 411.042 669.331 420.309 668.442 422.536C666.716 426.798 665.603 424.52 663.609 423.959C661.615 423.399 659.061 424.52 657.921 423.959C656.782 423.399 650.102 423.959 650.102 423.959C650.177 422.917 650.177 421.87 650.102 420.827C649.955 419.697 642.282 420.827 642.282 420.827L649.558 402.189H676.547Z" fill="black"/>
<path d="M657.921 379.822L642.282 419.904C642.282 419.904 649.955 418.765 650.102 419.904C650.177 420.944 650.177 421.988 650.102 423.028C650.102 423.028 656.782 422.467 657.921 423.028C659.061 423.588 661.615 422.467 663.609 423.028C665.603 423.588 666.733 425.875 668.442 421.612C670.151 417.35 682.657 386.924 682.372 383.8C682.087 380.676 675.83 387.493 675.545 385.793C675.261 384.094 675.545 377.587 672.706 377.587C669.866 377.587 668.157 380.961 666.449 380.961C664.74 380.961 657.921 379.822 657.921 379.822Z" fill="#9D9CB5"/>
<g opacity="0.35">
<path opacity="0.2" d="M713.02 460.443H617.029V467.286H713.02V460.443Z" fill="#1D7DE8"/>
</g>
<g opacity="0.35">
<path opacity="0.2" d="M713.02 504.891H617.029V511.734H713.02V504.891Z" fill="#1D7DE8"/>
</g>
<g opacity="0.35">
<path opacity="0.2" d="M713.02 549.347H617.029V556.19H713.02V549.347Z" fill="#1D7DE8"/>
</g>
<path d="M205.386 407.944V382.428H169.56V407.944H94.7569V608.982H270.453V407.944H205.386Z" fill="url(#paint3_linear)"/>
<path d="M268.597 408.962H96.6125V607.671H268.597V408.962Z" fill="#F6F7F9"/>
<path opacity="0.1" d="M204.911 408.962H169.836V436.031H204.911V408.962Z" fill="black"/>
<path d="M204.911 383.74H169.836V435.108H204.911V383.74Z" fill="#9D9CB5"/>
<g opacity="0.35">
<path opacity="0.2" d="M230.596 457.026H134.605V463.869H230.596V457.026Z" fill="#1D7DE8"/>
</g>
<g opacity="0.35">
<path opacity="0.2" d="M230.596 470.634H134.605V477.476H230.596V470.634Z" fill="#1D7DE8"/>
</g>
<g opacity="0.35">
<path opacity="0.2" d="M230.596 484.25H134.605V491.093H230.596V484.25Z" fill="#1D7DE8"/>
</g>
<g opacity="0.35">
<path opacity="0.2" d="M230.596 497.858H134.605V504.701H230.596V497.858Z" fill="#1D7DE8"/>
</g>
<g opacity="0.35">
<path opacity="0.2" d="M230.605 513.011H204.911V533.772H230.605V513.011Z" fill="#1D7DE8"/>
</g>
<g opacity="0.35">
<path opacity="0.2" d="M160.299 538.69H134.605V559.452H160.299V538.69Z" fill="#1D7DE8"/>
</g>
<path d="M452.13 407.633H451.888C454.685 396.7 456.791 387.994 456.791 387.994L444.863 393.603C444.863 393.603 436.396 382.385 433.263 384.257C430.13 386.13 423.252 390.798 423.252 390.798L414.12 386.121L410.625 407.633H338.515V562.852L343.15 565.622C346.973 564.25 353.265 561.92 353.265 561.92L350.374 569.945L352.324 571.101L355.612 568.107L356.829 573.793L360.739 576.132L366.91 572.205L365.184 578.815L370.975 582.267L387.814 575.942L382.739 589.3L386.079 591.301L393.7 589.964C393.7 589.964 393.355 592.63 393.139 595.521L400.786 600.094C403.919 598.878 406.87 597.678 406.87 597.678C406.87 597.678 406.568 600.595 406.43 603.46L411.557 606.532C415.605 604.167 420.757 600.949 420.757 600.949L416.442 608.974H513.883V407.633H452.13Z" fill="url(#paint4_linear)"/>
<path d="M511.967 408.962V607.671H416.399L420.662 599.758C420.662 599.758 415.613 602.925 411.643 605.263L406.62 602.208C406.758 599.387 407.06 596.505 407.06 596.505C407.06 596.505 404.16 597.687 401.088 598.886L393.588 594.373C393.804 591.526 394.131 588.894 394.131 588.894L386.666 590.214L383.395 588.238L388.366 575.053L371.856 581.3L366.168 577.849L367.825 571.325L361.783 575.2L357.951 572.896L356.76 567.287L353.515 570.281L351.599 569.134L354.439 561.221C354.439 561.221 348.268 563.516 344.513 564.871L339.974 562.144V408.962H511.967Z" fill="#F6F7F9"/>
<g opacity="0.35">
<path opacity="0.2" d="M473.966 470.634H377.975V477.476H473.966V470.634Z" fill="#1D7DE8"/>
</g>
<g opacity="0.35">
<path opacity="0.2" d="M473.966 491.093H377.975V497.936H473.966V491.093Z" fill="#1D7DE8"/>
</g>
<g opacity="0.35">
<path opacity="0.2" d="M473.966 511.544H377.975V518.386H473.966V511.544Z" fill="#1D7DE8"/>
</g>
<g opacity="0.35">
<path opacity="0.2" d="M397.204 532.003H377.975V538.846H397.204V532.003Z" fill="#1D7DE8"/>
</g>
<path opacity="0.1" d="M451.396 408.962C446.719 427.411 439.9 452.97 438.122 452.521C435.361 451.771 431.045 446.481 431.045 446.481C431.045 446.481 420.895 456.016 415.976 451.098C411.056 446.179 404.281 449.553 404.281 449.553L410.841 408.954L451.396 408.962Z" fill="black"/>
<path d="M414.129 387.735L404.281 448.612C404.281 448.612 411.048 445.23 415.967 450.157C420.887 455.084 431.045 445.541 431.045 445.541C431.045 445.541 435.361 450.821 438.122 451.581C440.884 452.34 455.971 389.573 455.971 389.573L444.276 395.113C444.276 395.113 435.973 384.033 432.892 385.88C429.811 387.726 423.079 392.343 423.079 392.343L414.129 387.735Z" fill="#9D9CB5"/>
<path d="M494.567 122.057V116.215H402.978C398.775 116.215 401.347 122.057 401.347 122.057H351.582V252.355H570.026V122.057H494.567Z" fill="url(#paint5_linear)"/>
<path d="M568.714 122.678H352.963V251.414H568.714V122.678Z" fill="#F6F7F9"/>
<path opacity="0.1" d="M494.188 143.673H408.579C408.579 143.673 407.656 133.749 410.659 131.911C413.663 130.073 402.115 123.602 402.115 123.602C401.987 123.3 401.875 122.992 401.778 122.678H494.188V125.681C494.188 125.681 505.96 136.062 494.188 143.673Z" fill="black"/>
<path d="M403.729 116.914H494.188V124.758C494.188 124.758 505.96 135.113 494.188 142.749H408.579C408.579 142.749 407.656 132.826 410.659 130.988C413.663 129.15 402.115 122.678 402.115 122.678C402.115 122.678 399.577 116.914 403.729 116.914Z" fill="#9D9CB5"/>
<g opacity="0.35">
<path opacity="0.2" d="M542.226 163.053H379.468V165.746H542.226V163.053Z" fill="#1D7DE8"/>
</g>
<g opacity="0.35">
<path opacity="0.2" d="M476.693 173.201H379.468V175.893H476.693V173.201Z" fill="#1D7DE8"/>
</g>
<g opacity="0.35">
<path opacity="0.2" d="M542.226 183.357H379.468V186.05H542.226V183.357Z" fill="#1D7DE8"/>
</g>
<g opacity="0.35">
<path opacity="0.2" d="M542.226 193.505H379.468V196.197H542.226V193.505Z" fill="#1D7DE8"/>
</g>
<g opacity="0.35">
<path opacity="0.2" d="M542.226 203.653H379.468V206.345H542.226V203.653Z" fill="#1D7DE8"/>
</g>
<path d="M609.175 716.776C607.63 710.2 606.681 704.436 606.681 704.436C606.681 704.436 607.035 697.283 603.824 691.915V690.129V676.918C604.734 674.526 605.849 672.216 607.155 670.015C609.537 665.856 607.155 650.634 607.155 650.634C607.155 650.634 598.335 629.174 600.484 615.566C602.633 601.958 582.359 555.12 582.359 555.12C582.484 550.601 583.124 546.111 584.267 541.737C584.477 540.817 584.564 539.874 584.526 538.932C584.526 538.82 584.526 538.708 584.526 538.587V538.699C584.224 529.725 577.129 512.898 577.129 512.898L578.078 480.825C578.078 480.825 582.61 461.91 575.222 436.532C572.632 427.67 570.984 420.586 569.94 415.115C569.819 414.493 569.707 413.898 569.603 413.329C584.819 411.007 596.436 409.074 596.436 409.074C596.436 409.074 587.607 372.142 581.652 365.688C575.696 359.233 570.924 338.938 570.924 338.938C570.924 338.938 567.816 312.87 572.831 305.285C577.845 297.7 578.544 284.515 578.544 284.515C578.544 284.515 589.989 276.214 591.422 272.521C592.854 268.828 595.236 260.526 595.236 256.126C595.236 251.725 593.804 247.816 594.287 245.512C594.77 243.208 590.947 234.441 592.854 230.282C593.35 229.005 593.607 227.648 593.614 226.278C593.619 226.238 593.619 226.197 593.614 226.157C593.614 226.157 593.614 226.157 593.614 226.114C593.626 222.48 593.288 218.854 592.604 215.285C592.604 215.285 587.426 210.72 581.289 209.244L581.039 208.252L580.391 205.663C580.027 205.419 579.65 205.194 579.261 204.99V204.05L579.157 200.305L580.952 191.874C584.465 177.205 564.917 175.039 564.917 175.039C563.745 172.779 561.772 171.038 559.384 170.155C555.449 168.766 558.728 192.193 560.567 193.686C561.956 194.817 566.228 202.16 568.283 205.767L568.619 206.362C568.307 206.653 568.019 206.967 567.756 207.303L568.498 212.385L568.611 213.162C567.317 214.775 566.267 216.568 565.495 218.486C565.495 218.486 569.077 222.404 568.36 226.787C567.644 231.171 569.456 236.633 569.543 236.935C569.327 236.693 566.815 233.966 564.304 234.631C561.792 235.295 554.81 237.401 554.81 237.401C554.81 237.401 549.562 238.324 550.046 239.48C550.529 240.637 546.464 245.71 546.464 245.71L532.37 232.353C532.232 231.956 532.094 231.559 531.964 231.145C531.377 229.236 530.967 227.278 530.739 225.294C532.274 224.928 533.78 224.449 535.244 223.862C536.726 223.357 538.064 222.501 539.145 221.368C540.561 219.642 540.871 217.39 541.415 215.328C542.528 211.22 544.928 207.562 546.645 203.67C549.546 197.096 550.522 189.834 549.459 182.727C549.237 180.542 548.494 178.441 547.293 176.601C544.997 173.434 540.819 172.148 537.799 169.62C534.778 167.092 532.81 163.243 529.272 161.345C526.078 159.619 522.177 159.835 518.578 160.422C511.525 161.583 504.749 164.046 498.598 167.687C496.544 168.904 494.283 170.276 491.918 169.879C489.898 169.516 488.414 167.894 487.11 166.35C487.127 166.282 487.147 166.216 487.171 166.151L487.015 165.97C485.523 169.282 484.775 172.882 484.823 176.515C484.823 177.075 484.823 177.636 484.892 178.24C484.892 178.439 484.892 178.637 484.892 178.836C484.905 178.997 484.905 179.158 484.892 179.319V179.319C484.892 179.57 484.858 179.82 484.789 180.061C484.489 180.783 484.039 181.433 483.468 181.968C483.038 182.452 482.654 182.975 482.32 183.53C482.381 183.34 482.441 183.15 482.51 182.96C481.611 184.27 481.105 185.809 481.052 187.396C480.975 188.555 481.356 189.698 482.113 190.58C482.785 191.231 483.516 191.817 484.297 192.332C483.325 197.745 484.037 203.326 486.336 208.322C488.636 213.318 492.412 217.489 497.157 220.272C497.321 220.669 497.476 221.075 497.64 221.48C499.435 226.226 500.79 231.749 500.229 236.848C500.177 237.228 500.126 237.599 500.057 237.97C499.875 238.16 499.703 238.359 499.547 238.557C499.547 238.557 476.244 238.781 470.798 233.82C465.352 228.858 456.989 245.9 456.989 245.9C456.989 245.9 448.643 247.523 446.977 245.9C445.312 244.278 435.533 245.676 435.533 245.676C435.533 245.676 429.569 239.903 420.99 240.369C417.732 237.893 414.137 235.894 410.314 234.432L410.046 234.337C408.368 233.731 406.576 233.504 404.799 233.673C404.799 233.673 393.355 224.181 390.023 219.142C386.692 214.102 370.785 195.24 370.716 195.153L370.656 194.29L370.475 191.546C370.003 191.621 369.527 191.661 369.05 191.667L368.731 190.718C367.818 188.041 366.687 185.443 365.348 182.952C365.348 182.952 365.348 179.5 366.358 178.637C367.367 177.774 365.943 165.081 365.943 165.081C365.943 165.081 355.63 140.972 346.395 158.972C346.395 158.972 328.935 170.612 343.59 184.169C343.59 184.169 349.433 187.007 350.261 189.251C350.805 190.709 352.79 194.774 354.128 197.483C354.352 197.932 354.551 198.346 354.723 198.691L354.559 198.829L354.775 201.09L354.862 201.953C352.1 203.523 350.227 205.068 350.684 206.267C351.5 208.266 352.06 210.359 352.35 212.497C352.35 212.497 372.615 237.875 375.239 248.739C375.239 248.739 429.612 281.038 447.478 283.35L444.38 299.495C444.38 299.495 443.422 309.185 443.663 312.646C443.905 316.106 441.514 331.802 441.514 331.802C441.514 331.802 438.416 354.867 435.792 358.094C433.168 361.322 433.652 375.171 433.652 375.171C433.02 381.799 431.822 388.361 430.07 394.785C427.481 403.552 429.362 414.39 429.362 414.39C429.362 414.39 420.3 435.16 441.998 421.086C441.998 421.086 452.648 420.422 464.912 420.007C464.912 420.404 464.912 420.81 464.912 421.224C464.912 422.803 464.86 424.512 464.843 426.315C464.679 438.206 464.61 454.592 465.145 466.992C466.095 488.91 472.775 532.288 472.775 532.288V554.076C472.344 556.124 472.133 558.213 472.145 560.306C471.998 567.987 474.036 575.552 478.022 582.12L479.688 596.651C479.688 596.651 483.606 606.23 483.684 611.951C483.665 612.418 483.608 612.882 483.511 613.34C483.365 614.073 483.302 614.819 483.321 615.566C483.097 622.167 487.076 637.95 487.076 637.95C487.076 637.95 487.318 653.87 489.665 654.794C491.702 655.579 486.946 663.966 485.522 666.374C485.522 666.218 485.462 666.072 485.436 665.916C485.255 666.227 485.143 666.4 485.143 666.4C484.653 667.684 484.401 669.046 484.4 670.421C484.265 671.508 484.442 672.612 484.909 673.603C485.377 674.595 486.116 675.433 487.041 676.021C491.572 678.791 494.006 681.095 490.166 682.061C488.751 682.277 487.348 682.565 485.962 682.924C485.893 682.743 485.824 682.562 485.764 682.389C485.228 682.61 484.781 683.006 484.496 683.511C484.212 684.016 484.105 684.603 484.193 685.176C484.09 686.341 484.478 688.041 485.617 690.578C489.389 699.06 492.064 702.305 492.064 702.305L493.894 702.098C493.615 702.791 493.259 703.451 492.833 704.065C492.136 705.066 491.21 705.886 490.131 706.455C489.138 707.054 488.029 707.434 486.877 707.568C485.583 707.612 484.313 707.927 483.148 708.493C481.984 709.06 480.952 709.865 480.119 710.856C477.746 713.928 476.253 718.122 480.983 721.798L498.037 727.683C498.037 727.683 527.381 731.488 525.802 724.913C524.223 718.337 523.308 712.573 523.308 712.573C523.308 712.573 523.636 706.153 520.926 700.907C520.622 700.307 520.276 699.731 519.89 699.181L520.926 699.06C520.926 699.06 523.066 684.529 525.931 681.802C526.587 681.164 526.734 680.672 526.579 680.301C526.881 679.507 526.13 679.041 525.172 678.782L524.965 679.352C524.029 679.147 523.075 679.04 522.117 679.032C522.117 679.032 521.159 671.422 524.257 668.678C524.509 668.363 524.693 668 524.797 667.611C524.901 667.222 524.923 666.815 524.861 666.417C524.887 665.375 524.78 664.334 524.542 663.319C524.542 663.371 524.473 663.44 524.43 663.492C522.868 656.588 517.586 645.604 517.586 645.604C517.586 645.604 517.344 638.7 519.251 635.922C521.159 633.143 519.018 598.308 519.018 598.308C519.018 598.308 519.735 581.473 517.586 573.629C515.436 565.786 520.175 556.553 520.175 556.553C520.175 556.553 520.175 556.371 520.123 556.052L520.183 555.931C520.183 555.931 520.08 554.896 519.907 553.282C519.883 553.332 519.863 553.384 519.847 553.437C519.372 548.985 518.457 540.908 517.793 537.172C516.8 531.796 517.957 506.427 517.957 506.427L522.272 495.589L529.902 514.27L538.014 539.191C538.014 539.191 542.028 544.455 542.123 549.787C542.123 550.046 542.123 550.305 542.071 550.564C542.006 551.117 541.974 551.673 541.976 552.229C541.833 555.376 542.698 558.487 544.444 561.109C544.444 561.109 546.593 572.87 549.934 575.873C553.274 578.876 553.265 584.64 553.265 584.64C553.265 584.64 557.321 601.708 559.229 604.711C560.834 607.239 560.955 614.203 560.903 616.317C560.903 616.714 560.903 616.938 560.903 616.938C560.903 616.938 561.464 623.039 561.447 628.156C561.447 628.786 561.447 629.398 561.387 629.977V629.847C561.381 631.245 561.216 632.637 560.895 633.998C560.866 634.074 560.843 634.152 560.826 634.231C560.826 633.946 560.826 633.652 560.895 633.368C560.056 636.848 559.647 640.419 559.678 643.999C559.566 650.134 560.541 657.408 564.217 661.671C570.656 669.057 574.712 668.134 574.712 668.134C574.712 668.134 571.605 677.358 567.808 679.205C567.665 679.278 567.529 679.365 567.402 679.464C567.402 679.283 567.333 679.11 567.307 678.929C566.513 679.619 566.194 680.862 566.194 682.38C565.918 686.436 568.472 693.029 570.915 696.057C571.813 696.961 572.922 697.625 574.143 697.99C573.948 698.124 573.746 698.248 573.539 698.361C573.115 698.593 572.677 698.798 572.227 698.974C571.611 699.247 570.955 699.418 570.285 699.483C568.99 699.52 567.717 699.833 566.552 700.4C565.387 700.966 564.356 701.775 563.527 702.771C561.154 705.834 559.66 710.028 564.39 713.704L581.41 719.563C581.41 719.563 610.737 723.351 609.175 716.776Z" fill="url(#paint6_linear)"/>
<path d="M497.182 727.674L480.68 721.789C476.123 718.113 477.573 713.919 479.878 710.847C480.668 709.864 481.66 709.061 482.787 708.494C483.914 707.927 485.15 707.608 486.411 707.56C487.53 707.423 488.605 707.043 489.561 706.447C490.603 705.867 491.49 705.048 492.151 704.056C493.358 702.147 494.009 699.939 494.032 697.68C494.032 697.68 512.157 692.373 517.111 697.68C517.996 698.639 518.734 699.723 519.303 700.898C521.892 706.145 521.616 712.565 521.616 712.565C521.616 712.565 522.54 718.32 524.033 724.904C525.526 731.488 497.182 727.674 497.182 727.674Z" fill="#2D293D"/>
<path d="M577.94 719.563L561.438 713.678C556.89 710.002 558.34 705.808 560.636 702.745C561.424 701.759 562.416 700.955 563.543 700.387C564.671 699.82 565.908 699.503 567.169 699.457C567.823 699.394 568.462 699.221 569.059 698.948C569.495 698.771 569.919 698.566 570.328 698.335C574.946 695.799 574.825 689.568 574.825 689.568C574.825 689.568 592.949 684.262 597.903 689.568C598.566 690.285 599.146 691.076 599.629 691.924C602.737 697.291 602.391 704.453 602.391 704.453C602.391 704.453 603.315 710.217 604.817 716.793C606.318 723.368 577.94 719.563 577.94 719.563Z" fill="#2D293D"/>
<path opacity="0.1" d="M517.137 697.68C518.022 698.639 518.76 699.723 519.329 700.898V700.898L492.177 704.031C493.384 702.121 494.035 699.913 494.058 697.654C494.058 697.654 512.183 692.373 517.137 697.68Z" fill="black"/>
<path opacity="0.1" d="M599.638 691.95V697.032C595.418 703.987 574.989 702.469 569.059 698.974C569.495 698.797 569.919 698.592 570.328 698.361C574.945 695.824 574.825 689.594 574.825 689.594C574.825 689.594 592.949 684.287 597.903 689.594C598.569 690.311 599.151 691.101 599.638 691.95V691.95Z" fill="black"/>
<path d="M602.866 669.998C601.6 672.205 600.52 674.514 599.638 676.901V695.143C595.021 702.753 571.018 700.217 567.791 696.066C564.563 691.915 561.102 681.069 564.787 679.222C568.472 677.376 571.467 668.151 571.467 668.151C571.467 668.151 567.54 669.075 561.309 661.688C555.077 654.302 556.924 637.924 558.09 634.006C559.255 630.089 558.09 616.93 558.09 616.93C558.09 616.93 558.323 607.705 556.476 604.702C554.629 601.699 550.754 584.631 550.754 584.631C550.754 584.631 550.754 578.867 547.517 575.864C544.28 572.861 542.209 561.1 542.209 561.1C540.32 558.16 539.506 554.657 539.905 551.185C540.595 545.412 535.978 539.182 535.978 539.182L528.132 514.27L520.753 495.58L516.567 506.427C516.567 506.427 515.411 531.805 516.334 537.111C517.258 542.418 518.638 556.475 518.638 556.475C518.638 556.475 514.03 565.699 516.101 573.543C518.172 581.387 517.491 598.231 517.491 598.231C517.491 598.231 519.562 633.066 517.715 635.836C515.868 638.606 516.101 645.526 516.101 645.526C516.101 645.526 525.595 665.821 522.566 668.591C519.536 671.361 520.485 678.946 520.485 678.946C520.485 678.946 526.95 678.946 524.179 681.716C521.409 684.486 519.329 698.974 519.329 698.974L491.434 702.305C491.434 702.305 488.845 699.069 485.186 690.535C481.526 682.001 485.876 682.924 489.587 682.001C493.299 681.077 490.951 678.773 486.567 675.96C482.182 673.147 484.72 666.96 484.72 666.96C484.72 666.96 491.409 655.656 489.104 654.733C486.8 653.81 486.567 637.889 486.567 637.889C486.567 637.889 481.949 618.975 483.114 613.901C484.28 608.827 479.42 596.6 479.42 596.6L477.806 582.06C469.495 567.762 472.732 554.611 472.732 554.611V532.262C472.732 532.262 466.267 488.893 465.344 466.975C464.757 452.936 464.921 433.779 465.111 421.828C465.223 415.123 465.344 410.679 465.344 410.679L565.029 400.325C565.029 400.325 564.925 404.924 566.841 415.132C567.851 420.603 569.43 427.687 571.951 436.549C579.105 461.927 574.721 480.842 574.721 480.842L573.798 512.907C573.798 512.907 582.566 534.367 580.702 541.745C579.596 546.125 578.976 550.613 578.855 555.129C578.855 555.129 598.473 601.967 596.393 615.575C594.313 629.183 602.857 650.643 602.857 650.643C602.857 650.643 605.17 665.839 602.866 669.998Z" fill="#575988"/>
<path opacity="0.05" d="M545.869 549.796L576.214 545.758C576.214 545.758 559.022 563.292 545.869 549.796Z" fill="black"/>
<path opacity="0.1" d="M571.83 516.117C571.83 516.117 572.865 526.843 566.289 530.881C566.289 530.881 578.061 529.035 571.83 516.117Z" fill="black"/>
<path opacity="0.1" d="M569.966 481.972C569.966 481.972 544.6 502.846 535.374 501.12C526.147 499.394 569.966 481.972 569.966 481.972Z" fill="black"/>
<path opacity="0.1" d="M508.256 559.607C508.256 559.607 488.992 563.982 488.405 571.688C487.818 579.393 508.256 559.607 508.256 559.607Z" fill="black"/>
<path opacity="0.05" d="M512.494 655.803C512.494 655.803 485.264 660.886 492.997 664.337C500.73 667.789 513.417 670.559 513.417 670.559C513.417 670.559 522.186 671.033 512.494 655.803Z" fill="black"/>
<g opacity="0.05">
<path opacity="0.05" d="M487.499 669.834C486.813 669.407 486.233 668.83 485.801 668.147C485.369 667.465 485.097 666.693 485.005 665.89L484.728 666.374C484.728 666.374 482.191 672.604 486.575 675.374L487.999 676.306C488.802 676.159 489.674 676.047 490.52 675.831C494.231 674.908 491.883 672.604 487.499 669.834Z" fill="black"/>
<path opacity="0.05" d="M522.574 667.987C523.316 667.297 523.291 665.528 522.833 663.25C521.608 665.036 521.314 667.815 521.288 669.929C521.573 669.197 522.012 668.535 522.574 667.987V667.987Z" fill="black"/>
<path opacity="0.05" d="M518.38 553.213C517.371 555.94 516.752 558.796 516.541 561.695C517.061 559.693 517.766 557.743 518.647 555.871C518.647 555.871 518.544 554.827 518.38 553.213Z" fill="black"/>
<path opacity="0.05" d="M580.719 541.098C580.908 540.272 580.993 539.425 580.97 538.578C580.633 540.304 580.392 541.901 580.219 543.298C580.366 542.582 580.53 541.849 580.719 541.098Z" fill="black"/>
<path opacity="0.05" d="M517.724 635.232C518.103 634.662 518.311 632.764 518.414 630.106C517.551 631.789 517.197 634.507 517.085 636.578C517.244 636.105 517.458 635.653 517.724 635.232V635.232Z" fill="black"/>
<path opacity="0.05" d="M523.446 678.739C521.547 683.916 520.261 692.908 520.261 692.908L492.358 696.135C492.358 696.135 489.769 692.908 486.109 684.374C485.79 683.623 485.531 682.95 485.324 682.337C483.649 683.105 482.994 684.84 485.186 689.905C488.88 698.439 491.434 701.675 491.434 701.675L519.338 698.439C519.338 698.439 521.418 683.908 524.188 681.181C525.552 679.783 524.68 679.084 523.446 678.739Z" fill="black"/>
<path opacity="0.05" d="M486.575 637.303C486.575 637.303 486.808 653.223 489.113 654.146C490.278 651.515 491.055 648.969 489.976 648.598C487.671 647.683 487.438 631.763 487.438 631.763C487.438 631.763 482.821 612.839 483.986 607.766C485.151 602.692 480.292 590.464 480.292 590.464L478.678 575.933C470.367 561.626 473.603 548.476 473.603 548.476V526.109C473.603 526.109 467.139 482.732 466.215 460.814C465.629 446.783 465.793 427.627 465.982 415.676C465.982 413.51 466.06 411.594 466.095 409.981L465.292 410.058C465.292 410.058 465.171 414.502 465.059 421.207C464.869 433.158 464.705 452.271 465.292 466.354C466.215 488.271 472.68 531.641 472.68 531.641V554.024C472.68 554.024 469.443 567.175 477.755 581.473L479.369 596.013C479.369 596.013 484.21 608.24 483.063 613.271C481.915 618.302 486.575 637.303 486.575 637.303Z" fill="black"/>
<path opacity="0.05" d="M568.723 689.905C566.455 686.625 564.946 682.881 564.304 678.946C561.456 681.535 564.727 691.501 567.756 695.445C570.984 699.595 594.986 702.132 599.604 694.521V690.129C593.407 696.316 571.778 693.831 568.723 689.905Z" fill="black"/>
<path opacity="0.05" d="M603.798 663.837C602.527 666.043 601.445 668.352 600.562 670.74V673.976C601.088 672.794 601.839 671.215 602.875 669.359C603.539 668.16 603.815 666.046 603.884 663.638C603.85 663.716 603.824 663.785 603.798 663.837Z" fill="black"/>
<path opacity="0.05" d="M570.138 667.47C571.021 665.697 571.782 663.866 572.417 661.99C572.417 661.99 568.49 662.913 562.258 655.536C557.727 650.16 557.468 640.003 558.116 633.385C556.95 637.311 555.112 653.689 561.335 661.067C565.426 665.899 568.49 667.168 570.138 667.47Z" fill="black"/>
<path opacity="0.05" d="M558.107 616.308C558.513 620.855 558.666 625.421 558.564 629.985C558.683 629.264 558.841 628.549 559.039 627.845C560.204 623.928 559.039 610.777 559.039 610.777C559.039 610.777 559.272 601.544 557.425 598.55C555.578 595.556 551.617 578.479 551.617 578.479C551.617 578.479 551.617 572.706 548.389 569.712C545.161 566.717 543.081 554.947 543.081 554.947C541.193 552.004 540.379 548.499 540.776 545.024C541.467 539.26 536.849 533.03 536.849 533.03L529.03 508.152L521.651 489.471L517.491 500.309C517.491 500.309 517.43 501.672 517.353 503.812L520.727 495.002L528.106 513.692L535.952 538.604C535.952 538.604 540.569 544.834 539.879 550.607C539.48 554.079 540.295 557.581 542.183 560.522C542.183 560.522 544.263 572.292 547.491 575.286C550.719 578.28 550.753 584.01 550.753 584.01C550.753 584.01 554.68 601.087 556.527 604.081C558.374 607.075 558.107 616.308 558.107 616.308Z" fill="black"/>
</g>
<path d="M577.509 191.857L575.783 200.279L575.886 204.024L575.955 206.794L566.289 207.786L565.21 205.793C563.216 202.186 559.082 194.843 557.736 193.712C555.958 192.211 552.782 168.792 556.597 170.181C558.921 171.08 560.83 172.808 561.956 175.03C561.956 175.03 580.892 177.214 577.509 191.857Z" fill="#FFCDD3"/>
<path opacity="0.1" d="M575.921 206.794L566.289 207.786L565.21 205.793C566.591 204.369 570.535 201.133 575.843 204.067L575.921 206.794Z" fill="black"/>
<path d="M578.372 211.315L565.685 214.266L565.417 212.368L564.701 207.286C564.701 207.286 569.715 200.589 576.991 205.603L577.621 208.192L578.372 211.315Z" fill="#DCE6F2"/>
<path d="M372.684 192.78L359.151 200.046C359.151 200.046 358.633 198.976 357.925 197.457C356.631 194.756 354.715 190.683 354.188 189.225C353.386 186.982 347.724 184.151 347.724 184.151C333.544 170.595 350.443 158.946 350.443 158.946C359.384 140.955 369.361 165.055 369.361 165.055C369.361 165.055 370.742 177.757 369.767 178.611C368.792 179.466 368.792 182.926 368.792 182.926C370.086 185.423 371.177 188.02 372.054 190.692C372.46 191.986 372.684 192.78 372.684 192.78Z" fill="#FFCDD3"/>
<path opacity="0.1" d="M372.684 192.78L359.151 200.046C359.151 200.046 358.633 198.976 357.926 197.457C359.833 195.861 366.617 190.364 368.843 190.614C369.908 190.746 370.984 190.772 372.054 190.692C372.46 191.986 372.684 192.78 372.684 192.78Z" fill="black"/>
<path d="M374.074 196.87L358.84 204.412L358.538 201.133L358.323 198.872C358.323 198.872 367.143 191.313 369.75 191.607C371.069 191.801 372.409 191.801 373.728 191.607L373.901 194.351L374.074 196.87Z" fill="#DCE6F2"/>
<path d="M540.561 247.807C540.561 247.807 474.156 255.297 486.567 251.259C495.197 248.446 498.65 242.949 499.357 236.857C499.944 231.757 498.632 226.243 496.889 221.497C495.321 217.309 493.331 213.29 490.951 209.503C490.951 209.503 541.717 181.58 531.516 206.915C529.951 210.755 528.982 214.811 528.642 218.943C528.34 223.064 528.796 227.206 529.988 231.162C531.906 237.581 535.565 243.342 540.561 247.807Z" fill="#FFCDD3"/>
<path opacity="0.1" d="M531.559 207.001C529.994 210.841 529.025 214.897 528.685 219.03C523.903 223.042 518.656 222.783 511.924 222.783C506.745 222.783 501.023 224.034 496.889 221.541C495.321 217.352 493.331 213.333 490.951 209.546C490.951 209.546 541.717 181.588 531.559 207.001Z" fill="black"/>
<path d="M511.026 224.509C526.194 224.509 538.489 212.216 538.489 197.052C538.489 181.887 526.194 169.594 511.026 169.594C495.859 169.594 483.563 181.887 483.563 197.052C483.563 212.216 495.859 224.509 511.026 224.509Z" fill="#FFCDD3"/>
<path opacity="0.1" d="M540.561 247.807C540.561 247.807 474.156 255.297 486.567 251.259C495.197 248.446 498.65 242.949 499.357 236.857C502.663 233.285 509.309 230.696 513.572 229.324C517.482 228.008 521.704 227.939 525.655 229.126C527.205 229.588 528.68 230.274 530.031 231.162C531.937 237.576 535.581 243.337 540.561 247.807Z" fill="black"/>
<path opacity="0.1" d="M578.372 211.315L565.685 214.266L565.417 212.368C568.999 207.795 573.513 207.242 577.621 208.2L578.372 211.315Z" fill="black"/>
<path opacity="0.1" d="M374.074 196.87L358.84 204.412L358.538 201.133C363.984 197.923 373.107 194.618 373.901 194.333L374.074 196.87Z" fill="black"/>
<path opacity="0.1" d="M566.833 415.106C541.113 419.162 504.51 424.451 498.702 422.682C493.886 421.215 478.497 421.371 465.102 421.819C465.214 415.115 465.335 410.671 465.335 410.671L565.02 400.316C565.02 400.316 564.917 404.898 566.833 415.106Z" fill="black"/>
<path d="M592.483 409.066C592.483 409.066 507.798 423.588 498.702 420.836C489.605 418.083 442.956 421.069 442.956 421.069C421.957 435.134 430.726 414.373 430.726 414.373C430.726 414.373 428.879 403.535 431.416 394.768C433.109 388.337 434.264 381.776 434.869 375.154C434.869 375.154 434.411 361.348 436.949 358.086C439.486 354.824 442.481 331.785 442.481 331.785C442.481 331.785 444.794 316.097 444.561 312.637C444.328 309.177 445.251 299.486 445.251 299.486L448.255 283.333C430.993 281.029 378.346 248.731 378.346 248.731C375.808 237.884 356.191 212.489 356.191 212.489C355.905 210.355 355.364 208.263 354.577 206.259C353.187 202.566 373.961 195.188 373.961 195.188C373.961 195.188 389.419 214.102 392.647 219.176C395.875 224.25 406.957 233.751 406.957 233.751C408.677 233.574 410.415 233.801 412.032 234.415C412.127 234.415 412.204 234.467 412.299 234.493C412.394 234.519 412.299 234.493 412.299 234.493C417.478 236.296 422.656 240.421 422.656 240.421C430.967 239.964 436.733 245.728 436.733 245.728C436.733 245.728 446.227 244.347 447.806 245.961C449.385 247.574 457.498 245.961 457.498 245.961C457.498 245.961 465.577 228.884 470.885 233.88C476.193 238.876 498.71 238.609 498.71 238.609C501.714 234.622 509.015 231.766 513.581 230.29C517.491 228.974 521.713 228.905 525.664 230.092C527.367 230.577 528.973 231.354 530.411 232.387L544.073 245.762C544.073 245.762 548 240.688 547.526 239.532C547.051 238.376 552.143 237.461 552.143 237.461C552.143 237.461 558.832 235.382 561.369 234.691C563.907 234.001 566.237 236.745 566.444 236.987C566.358 236.693 564.623 231.11 565.296 226.847C565.97 222.585 562.526 218.538 562.526 218.538C570.604 198.691 588.832 215.311 588.832 215.311C588.832 215.311 590.912 226.157 589.065 230.308C587.218 234.458 590.912 243.251 590.446 245.529C589.98 247.807 591.37 251.759 591.37 256.143C591.37 260.526 589.065 268.836 587.676 272.538C586.286 276.24 575.179 284.489 575.179 284.489C575.179 284.489 574.479 297.64 569.638 305.25C564.796 312.861 567.791 338.904 567.791 338.904C567.791 338.904 572.408 359.208 578.148 365.653C583.887 372.099 592.483 409.066 592.483 409.066Z" fill="#656691"/>
<path opacity="0.1" d="M469.029 257.265C469.029 257.265 466.492 249.654 464.187 248.955C461.889 248.11 459.651 247.11 457.49 245.961L458.974 243.122C458.974 243.122 467.648 245.495 469.029 248.032C470.41 250.569 469.029 257.265 469.029 257.265Z" fill="black"/>
<path opacity="0.1" d="M422.647 240.421C422.19 242.733 401.649 244.804 401.649 244.804L412.006 234.398L412.265 234.484C417.512 236.339 422.647 240.421 422.647 240.421Z" fill="black"/>
<path d="M363.225 210.599C364.245 210.599 365.072 209.772 365.072 208.752C365.072 207.733 364.245 206.906 363.225 206.906C362.205 206.906 361.378 207.733 361.378 208.752C361.378 209.772 362.205 210.599 363.225 210.599Z" fill="#575988"/>
<path d="M365.59 214.292C366.61 214.292 367.437 213.466 367.437 212.446C367.437 211.426 366.61 210.599 365.59 210.599C364.57 210.599 363.743 211.426 363.743 212.446C363.743 213.466 364.57 214.292 365.59 214.292Z" fill="#575988"/>
<path d="M367.903 217.701C368.923 217.701 369.75 216.874 369.75 215.854C369.75 214.834 368.923 214.008 367.903 214.008C366.883 214.008 366.056 214.834 366.056 215.854C366.056 216.874 366.883 217.701 367.903 217.701Z" fill="#575988"/>
<path d="M370.319 221.385C371.339 221.385 372.166 220.559 372.166 219.539C372.166 218.519 371.339 217.692 370.319 217.692C369.299 217.692 368.472 218.519 368.472 219.539C368.472 220.559 369.299 221.385 370.319 221.385Z" fill="#575988"/>
<path d="M587.831 220.842C588.661 220.842 589.333 220.169 589.333 219.34C589.333 218.511 588.661 217.839 587.831 217.839C587.002 217.839 586.329 218.511 586.329 219.34C586.329 220.169 587.002 220.842 587.831 220.842Z" fill="#575988"/>
<path d="M588.064 224.241C588.894 224.241 589.566 223.569 589.566 222.74C589.566 221.911 588.894 221.239 588.064 221.239C587.235 221.239 586.562 221.911 586.562 222.74C586.562 223.569 587.235 224.241 588.064 224.241Z" fill="#575988"/>
<path d="M588.271 227.65C589.101 227.65 589.773 226.978 589.773 226.149C589.773 225.319 589.101 224.647 588.271 224.647C587.442 224.647 586.77 225.319 586.77 226.149C586.77 226.978 587.442 227.65 588.271 227.65Z" fill="#575988"/>
<path opacity="0.1" d="M469.141 319.782C468.934 319.514 520.926 385.189 561.326 347.239C561.326 347.239 497.528 355.894 469.141 319.782Z" fill="black"/>
<path opacity="0.1" d="M439.262 353.927C439.262 353.927 470.384 354.79 473.646 363.729V373.04C472.762 373.535 471.765 373.795 470.751 373.795C469.737 373.795 468.74 373.535 467.855 373.04C464.714 371.314 445.899 361.822 439.262 366.387V353.927Z" fill="black"/>
<path d="M439.84 353.927C439.84 353.927 469.607 354.738 472.723 363.272V372.151C471.876 372.624 470.922 372.872 469.952 372.872C468.983 372.872 468.029 372.624 467.182 372.151C464.187 370.537 446.183 361.425 439.84 365.809V353.927Z" fill="#656691"/>
<path opacity="0.1" d="M456.255 286.388C456.255 286.388 459.82 295.551 468.339 307.097C473.608 314.149 479.989 320.299 487.231 325.304C487.231 325.304 456.773 290.633 456.255 286.388Z" fill="black"/>
<path opacity="0.1" d="M446.071 250.189C446.071 250.189 451.25 272.624 464.645 280.218L446.071 250.189Z" fill="black"/>
<path opacity="0.1" d="M438.105 252.458C437.976 252.044 433.496 270.182 455.367 280.218C455.358 280.218 446.071 277.068 438.105 252.458Z" fill="black"/>
<path opacity="0.1" d="M574.056 237.427C573.711 237.427 584.845 244.511 587.866 247.781C587.866 247.807 580.599 236.961 574.056 237.427Z" fill="black"/>
<path d="M503.604 221.938C503.992 223.353 504.467 224.906 505.744 225.648C506.552 226.036 507.437 226.234 508.333 226.226C516.705 226.744 525.414 227.089 533.164 223.888C534.607 223.374 535.902 222.515 536.936 221.385C538.308 219.703 538.576 217.416 539.128 215.345C540.215 211.246 542.528 207.579 544.203 203.687C547.008 197.09 547.949 189.849 546.921 182.753C546.706 180.574 545.988 178.474 544.824 176.618C542.597 173.451 538.558 172.166 535.615 169.646C532.672 167.126 530.791 163.269 527.364 161.371C524.274 159.645 520.46 159.861 517.007 160.447C510.16 161.615 503.598 164.078 497.674 167.704C495.689 168.93 493.506 170.336 491.21 169.905C489.208 169.525 487.758 167.842 486.463 166.263C484.823 170.026 484.116 174.129 484.4 178.223C484.488 178.823 484.468 179.434 484.34 180.027C484.056 180.744 483.62 181.392 483.063 181.925C481 184.324 479.705 188.121 481.751 190.554C482.614 191.607 484.003 192.185 484.866 193.255C486.42 195.188 485.893 197.958 485.859 200.426C485.767 201.283 485.981 202.145 486.463 202.859C487.24 203.799 488.655 203.877 489.855 203.67C491.055 203.463 492.28 203.057 493.463 203.325C494.752 203.754 495.859 204.605 496.604 205.741C500.471 210.616 501.981 216.018 503.604 221.938Z" fill="#2D293D"/>
<g opacity="0.1">
<path opacity="0.1" d="M537.859 219.271C536.825 220.401 535.53 221.26 534.088 221.774C526.32 225.001 517.629 224.63 509.257 224.103C508.361 224.118 507.474 223.923 506.668 223.534C505.399 222.783 504.942 221.239 504.527 219.823C502.905 213.904 501.394 208.502 497.528 203.584C496.782 202.448 495.675 201.597 494.386 201.168C493.204 200.9 491.978 201.306 490.778 201.513C489.579 201.72 488.189 201.642 487.387 200.702C486.904 199.987 486.69 199.125 486.782 198.268C486.782 195.8 487.335 193.022 485.79 191.098C484.927 190.019 483.563 189.449 482.666 188.397C481.388 186.869 481.423 184.807 482.139 182.883C480.672 185.213 480.033 188.207 481.751 190.235C482.614 191.296 484.003 191.866 484.866 192.944C486.411 194.868 485.893 197.647 485.859 200.115C485.767 200.972 485.981 201.834 486.463 202.548C487.24 203.489 488.655 203.566 489.855 203.359C491.055 203.152 492.28 202.747 493.463 203.014C494.752 203.443 495.859 204.295 496.604 205.43C500.471 210.349 501.981 215.785 503.604 221.67C503.992 223.077 504.467 224.63 505.744 225.381C506.551 225.77 507.438 225.965 508.333 225.95C516.705 226.476 525.414 226.813 533.164 223.62C534.607 223.107 535.902 222.247 536.936 221.118C537.459 220.451 537.862 219.697 538.127 218.892C538.04 219.021 537.954 219.15 537.859 219.271Z" fill="black"/>
<path opacity="0.1" d="M484.426 179.267C484.808 178.87 485.103 178.397 485.289 177.878C485.417 177.285 485.438 176.674 485.35 176.075C485.122 172.712 485.559 169.337 486.636 166.143L486.489 165.961C484.849 169.724 484.141 173.827 484.426 177.921C484.469 178.369 484.469 178.82 484.426 179.267V179.267Z" fill="black"/>
</g>
<path opacity="0.1" d="M498.702 238.574C498.702 238.574 533.009 243.122 536.09 237.97Z" fill="black"/>
<path opacity="0.1" d="M565.426 224.388C565.426 224.388 584.482 224.388 588.677 231.55Z" fill="black"/>
<defs>
<linearGradient id="paint0_linear" x1="665.033" y1="320.834" x2="665.033" y2="140.187" gradientUnits="userSpaceOnUse">
<stop stop-color="#808080" stop-opacity="0.25"/>
<stop offset="0.54" stop-color="#808080" stop-opacity="0.12"/>
<stop offset="1" stop-color="#808080" stop-opacity="0.1"/>
</linearGradient>
<linearGradient id="paint1_linear" x1="36857.8" y1="75485.6" x2="36857.8" y2="32985.3" gradientUnits="userSpaceOnUse">
<stop stop-color="#808080" stop-opacity="0.25"/>
<stop offset="0.54" stop-color="#808080" stop-opacity="0.12"/>
<stop offset="1" stop-color="#808080" stop-opacity="0.1"/>
</linearGradient>
<linearGradient id="paint2_linear" x1="141196" y1="173673" x2="141196" y2="108966" gradientUnits="userSpaceOnUse">
<stop stop-color="#808080" stop-opacity="0.25"/>
<stop offset="0.54" stop-color="#808080" stop-opacity="0.12"/>
<stop offset="1" stop-color="#808080" stop-opacity="0.1"/>
</linearGradient>
<linearGradient id="paint3_linear" x1="37266.8" y1="160271" x2="37266.8" y2="100789" gradientUnits="userSpaceOnUse">
<stop stop-color="#808080" stop-opacity="0.25"/>
<stop offset="0.54" stop-color="#808080" stop-opacity="0.12"/>
<stop offset="1" stop-color="#808080" stop-opacity="0.1"/>
</linearGradient>
<linearGradient id="paint4_linear" x1="100419" y1="164547" x2="100419" y2="105913" gradientUnits="userSpaceOnUse">
<stop stop-color="#808080" stop-opacity="0.25"/>
<stop offset="0.54" stop-color="#808080" stop-opacity="0.12"/>
<stop offset="1" stop-color="#808080" stop-opacity="0.1"/>
</linearGradient>
<linearGradient id="paint5_linear" x1="133773" y1="43209.8" x2="133773" y2="21733.8" gradientUnits="userSpaceOnUse">
<stop stop-color="#808080" stop-opacity="0.25"/>
<stop offset="0.54" stop-color="#808080" stop-opacity="0.12"/>
<stop offset="1" stop-color="#808080" stop-opacity="0.1"/>
</linearGradient>
<linearGradient id="paint6_linear" x1="170147" y1="500923" x2="170147" y2="115794" gradientUnits="userSpaceOnUse">
<stop stop-color="#808080" stop-opacity="0.25"/>
<stop offset="0.54" stop-color="#808080" stop-opacity="0.12"/>
<stop offset="1" stop-color="#808080" stop-opacity="0.1"/>
</linearGradient>
</defs>
</svg>
